<svg width="30" height="30" viewBox="0 0 30 30" fill="none" xmlns="http://www.w3.org/2000/svg">
<mask id="path-1-outside-1_8_4" maskUnits="userSpaceOnUse" x="2.75" y="-0.0632324" width="24" height="30" fill="black">
<rect fill="white" x="2.75" y="-0.0632324" width="24" height="30"/>
<path d="M3.99428 26.1928C4.20908 26.3099 9.3208 29.0625 15 29.0625C21.1528 29.0625 25.8265 26.3007 26.0224 26.1832C26.0918 26.1416 26.1493 26.0826 26.1892 26.0122C26.229 25.9418 26.25 25.8622 26.25 25.7812C26.25 21.9965 25.0894 18.5332 22.9822 16.0288C21.5081 14.2768 19.6585 13.0827 17.6186 12.533C18.8673 11.9387 19.8767 10.9374 20.4811 9.69353C21.0854 8.44966 21.2487 7.03722 20.9441 5.68827C20.6395 4.33933 19.8851 3.13411 18.8049 2.27063C17.7247 1.40715 16.3829 0.936768 15 0.936768C13.6171 0.936768 12.2753 1.40715 11.1951 2.27063C10.1149 3.13411 9.36052 4.33933 9.05591 5.68827C8.75131 7.03722 8.91459 8.44966 9.51893 9.69353C10.1233 10.9374 11.1327 11.9387 12.3814 12.533C10.3415 13.0827 8.49193 14.277 7.01783 16.0288C4.91057 18.5332 3.75 21.9965 3.75 25.7812C3.75 25.8655 3.77269 25.9481 3.81567 26.0205C3.85866 26.0929 3.92035 26.1524 3.99428 26.1928V26.1928ZM9.84375 7.03125C9.84375 6.01144 10.1462 5.01453 10.7127 4.16659C11.2793 3.31865 12.0846 2.65776 13.0268 2.2675C13.969 1.87723 15.0057 1.77512 16.0059 1.97408C17.0061 2.17303 17.9249 2.66412 18.646 3.38523C19.3671 4.10634 19.8582 5.0251 20.0572 6.02532C20.2561 7.02553 20.154 8.06228 19.7638 9.00446C19.3735 9.94664 18.7126 10.7519 17.8647 11.3185C17.0167 11.8851 16.0198 12.1875 15 12.1875C13.633 12.1859 12.3223 11.6422 11.3557 10.6756C10.389 9.70891 9.8453 8.3983 9.84375 7.03125V7.03125ZM7.73514 16.6324C9.63867 14.3706 12.2184 13.125 15 13.125C17.7816 13.125 20.3613 14.3706 22.2649 16.6324C24.1798 18.908 25.2564 22.0511 25.3104 25.5078C24.3073 26.0508 20.1391 28.125 15 28.125C10.2475 28.125 5.77148 26.0385 4.68984 25.4967C4.74609 22.0443 5.82229 18.9056 7.73514 16.6324Z"/>
</mask>
<path d="M3.99428 26.1928C4.20908 26.3099 9.3208 29.0625 15 29.0625C21.1528 29.0625 25.8265 26.3007 26.0224 26.1832C26.0918 26.1416 26.1493 26.0826 26.1892 26.0122C26.229 25.9418 26.25 25.8622 26.25 25.7812C26.25 21.9965 25.0894 18.5332 22.9822 16.0288C21.5081 14.2768 19.6585 13.0827 17.6186 12.533C18.8673 11.9387 19.8767 10.9374 20.4811 9.69353C21.0854 8.44966 21.2487 7.03722 20.9441 5.68827C20.6395 4.33933 19.8851 3.13411 18.8049 2.27063C17.7247 1.40715 16.3829 0.936768 15 0.936768C13.6171 0.936768 12.2753 1.40715 11.1951 2.27063C10.1149 3.13411 9.36052 4.33933 9.05591 5.68827C8.75131 7.03722 8.91459 8.44966 9.51893 9.69353C10.1233 10.9374 11.1327 11.9387 12.3814 12.533C10.3415 13.0827 8.49193 14.277 7.01783 16.0288C4.91057 18.5332 3.75 21.9965 3.75 25.7812C3.75 25.8655 3.77269 25.9481 3.81567 26.0205C3.85866 26.0929 3.92035 26.1524 3.99428 26.1928V26.1928ZM9.84375 7.03125C9.84375 6.01144 10.1462 5.01453 10.7127 4.16659C11.2793 3.31865 12.0846 2.65776 13.0268 2.2675C13.969 1.87723 15.0057 1.77512 16.0059 1.97408C17.0061 2.17303 17.9249 2.66412 18.646 3.38523C19.3671 4.10634 19.8582 5.0251 20.0572 6.02532C20.2561 7.02553 20.154 8.06228 19.7638 9.00446C19.3735 9.94664 18.7126 10.7519 17.8647 11.3185C17.0167 11.8851 16.0198 12.1875 15 12.1875C13.633 12.1859 12.3223 11.6422 11.3557 10.6756C10.389 9.70891 9.8453 8.3983 9.84375 7.03125V7.03125ZM7.73514 16.6324C9.63867 14.3706 12.2184 13.125 15 13.125C17.7816 13.125 20.3613 14.3706 22.2649 16.6324C24.1798 18.908 25.2564 22.0511 25.3104 25.5078C24.3073 26.0508 20.1391 28.125 15 28.125C10.2475 28.125 5.77148 26.0385 4.68984 25.4967C4.74609 22.0443 5.82229 18.9056 7.73514 16.6324Z" fill="#1F1F1F"/>
<path d="M3.99428 26.1928C4.20908 26.3099 9.3208 29.0625 15 29.0625C21.1528 29.0625 25.8265 26.3007 26.0224 26.1832C26.0918 26.1416 26.1493 26.0826 26.1892 26.0122C26.229 25.9418 26.25 25.8622 26.25 25.7812C26.25 21.9965 25.0894 18.5332 22.9822 16.0288C21.5081 14.2768 19.6585 13.0827 17.6186 12.533C18.8673 11.9387 19.8767 10.9374 20.4811 9.69353C21.0854 8.44966 21.2487 7.03722 20.9441 5.68827C20.6395 4.33933 19.8851 3.13411 18.8049 2.27063C17.7247 1.40715 16.3829 0.936768 15 0.936768C13.6171 0.936768 12.2753 1.40715 11.1951 2.27063C10.1149 3.13411 9.36052 4.33933 9.05591 5.68827C8.75131 7.03722 8.91459 8.44966 9.51893 9.69353C10.1233 10.9374 11.1327 11.9387 12.3814 12.533C10.3415 13.0827 8.49193 14.277 7.01783 16.0288C4.91057 18.5332 3.75 21.9965 3.75 25.7812C3.75 25.8655 3.77269 25.9481 3.81567 26.0205C3.85866 26.0929 3.92035 26.1524 3.99428 26.1928V26.1928ZM9.84375 7.03125C9.84375 6.01144 10.1462 5.01453 10.7127 4.16659C11.2793 3.31865 12.0846 2.65776 13.0268 2.2675C13.969 1.87723 15.0057 1.77512 16.0059 1.97408C17.0061 2.17303 17.9249 2.66412 18.646 3.38523C19.3671 4.10634 19.8582 5.0251 20.0572 6.02532C20.2561 7.02553 20.154 8.06228 19.7638 9.00446C19.3735 9.94664 18.7126 10.7519 17.8647 11.3185C17.0167 11.8851 16.0198 12.1875 15 12.1875C13.633 12.1859 12.3223 11.6422 11.3557 10.6756C10.389 9.70891 9.8453 8.3983 9.84375 7.03125V7.03125ZM7.73514 16.6324C9.63867 14.3706 12.2184 13.125 15 13.125C17.7816 13.125 20.3613 14.3706 22.2649 16.6324C24.1798 18.908 25.2564 22.0511 25.3104 25.5078C24.3073 26.0508 20.1391 28.125 15 28.125C10.2475 28.125 5.77148 26.0385 4.68984 25.4967C4.74609 22.0443 5.82229 18.9056 7.73514 16.6324Z" stroke="#1F1F1F" stroke-width="0.8" mask="url(#path-1-outside-1_8_4)"/>
</svg>
