<svg width="60" height="60" viewBox="0 0 60 60" fill="none" xmlns="http://www.w3.org/2000/svg">
<rect width="60" height="60" fill="#E5E5E5"/>
<g clip-path="url(#clip0_0_1)">
<rect width="1280" height="4502" transform="translate(-1095 -88)" fill="white"/>
<circle cx="30" cy="30" r="29.5" fill="white" stroke="#BFBFBF"/>
<mask id="path-2-outside-1_0_1" maskUnits="userSpaceOnUse" x="17.75" y="14.9368" width="24" height="30" fill="black">
<rect fill="white" x="17.75" y="14.9368" width="24" height="30"/>
<path d="M18.9943 41.1928C19.2091 41.3099 24.3208 44.0625 30 44.0625C36.1528 44.0625 40.8265 41.3007 41.0224 41.1832C41.0918 41.1416 41.1493 41.0826 41.1892 41.0122C41.229 40.9418 41.25 40.8622 41.25 40.7812C41.25 36.9965 40.0894 33.5332 37.9822 31.0288C36.5081 29.2768 34.6585 28.0827 32.6186 27.533C33.8673 26.9387 34.8767 25.9374 35.4811 24.6935C36.0854 23.4497 36.2487 22.0372 35.9441 20.6883C35.6395 19.3393 34.8851 18.1341 33.8049 17.2706C32.7247 16.4071 31.3829 15.9368 30 15.9368C28.6171 15.9368 27.2753 16.4071 26.1951 17.2706C25.1149 18.1341 24.3605 19.3393 24.0559 20.6883C23.7513 22.0372 23.9146 23.4497 24.5189 24.6935C25.1233 25.9374 26.1327 26.9387 27.3814 27.533C25.3415 28.0827 23.4919 29.277 22.0178 31.0288C19.9106 33.5332 18.75 36.9965 18.75 40.7812C18.75 40.8655 18.7727 40.9481 18.8157 41.0205C18.8587 41.0929 18.9204 41.1524 18.9943 41.1928V41.1928ZM24.8438 22.0312C24.8438 21.0114 25.1462 20.0145 25.7127 19.1666C26.2793 18.3186 27.0846 17.6578 28.0268 17.2675C28.969 16.8772 30.0057 16.7751 31.0059 16.9741C32.0061 17.173 32.9249 17.6641 33.646 18.3852C34.3671 19.1063 34.8582 20.0251 35.0572 21.0253C35.2561 22.0255 35.154 23.0623 34.7638 24.0045C34.3735 24.9466 33.7126 25.7519 32.8647 26.3185C32.0167 26.8851 31.0198 27.1875 30 27.1875C28.633 27.1859 27.3223 26.6422 26.3557 25.6756C25.389 24.7089 24.8453 23.3983 24.8438 22.0312V22.0312ZM22.7351 31.6324C24.6387 29.3706 27.2184 28.125 30 28.125C32.7816 28.125 35.3613 29.3706 37.2649 31.6324C39.1798 33.908 40.2564 37.0511 40.3104 40.5078C39.3073 41.0508 35.1391 43.125 30 43.125C25.2475 43.125 20.7715 41.0385 19.6898 40.4967C19.7461 37.0443 20.8223 33.9056 22.7351 31.6324Z"/>
</mask>
<path d="M18.9943 41.1928C19.2091 41.3099 24.3208 44.0625 30 44.0625C36.1528 44.0625 40.8265 41.3007 41.0224 41.1832C41.0918 41.1416 41.1493 41.0826 41.1892 41.0122C41.229 40.9418 41.25 40.8622 41.25 40.7812C41.25 36.9965 40.0894 33.5332 37.9822 31.0288C36.5081 29.2768 34.6585 28.0827 32.6186 27.533C33.8673 26.9387 34.8767 25.9374 35.4811 24.6935C36.0854 23.4497 36.2487 22.0372 35.9441 20.6883C35.6395 19.3393 34.8851 18.1341 33.8049 17.2706C32.7247 16.4071 31.3829 15.9368 30 15.9368C28.6171 15.9368 27.2753 16.4071 26.1951 17.2706C25.1149 18.1341 24.3605 19.3393 24.0559 20.6883C23.7513 22.0372 23.9146 23.4497 24.5189 24.6935C25.1233 25.9374 26.1327 26.9387 27.3814 27.533C25.3415 28.0827 23.4919 29.277 22.0178 31.0288C19.9106 33.5332 18.75 36.9965 18.75 40.7812C18.75 40.8655 18.7727 40.9481 18.8157 41.0205C18.8587 41.0929 18.9204 41.1524 18.9943 41.1928V41.1928ZM24.8438 22.0312C24.8438 21.0114 25.1462 20.0145 25.7127 19.1666C26.2793 18.3186 27.0846 17.6578 28.0268 17.2675C28.969 16.8772 30.0057 16.7751 31.0059 16.9741C32.0061 17.173 32.9249 17.6641 33.646 18.3852C34.3671 19.1063 34.8582 20.0251 35.0572 21.0253C35.2561 22.0255 35.154 23.0623 34.7638 24.0045C34.3735 24.9466 33.7126 25.7519 32.8647 26.3185C32.0167 26.8851 31.0198 27.1875 30 27.1875C28.633 27.1859 27.3223 26.6422 26.3557 25.6756C25.389 24.7089 24.8453 23.3983 24.8438 22.0312V22.0312ZM22.7351 31.6324C24.6387 29.3706 27.2184 28.125 30 28.125C32.7816 28.125 35.3613 29.3706 37.2649 31.6324C39.1798 33.908 40.2564 37.0511 40.3104 40.5078C39.3073 41.0508 35.1391 43.125 30 43.125C25.2475 43.125 20.7715 41.0385 19.6898 40.4967C19.7461 37.0443 20.8223 33.9056 22.7351 31.6324Z" fill="#1F1F1F"/>
<path d="M18.9943 41.1928C19.2091 41.3099 24.3208 44.0625 30 44.0625C36.1528 44.0625 40.8265 41.3007 41.0224 41.1832C41.0918 41.1416 41.1493 41.0826 41.1892 41.0122C41.229 40.9418 41.25 40.8622 41.25 40.7812C41.25 36.9965 40.0894 33.5332 37.9822 31.0288C36.5081 29.2768 34.6585 28.0827 32.6186 27.533C33.8673 26.9387 34.8767 25.9374 35.4811 24.6935C36.0854 23.4497 36.2487 22.0372 35.9441 20.6883C35.6395 19.3393 34.8851 18.1341 33.8049 17.2706C32.7247 16.4071 31.3829 15.9368 30 15.9368C28.6171 15.9368 27.2753 16.4071 26.1951 17.2706C25.1149 18.1341 24.3605 19.3393 24.0559 20.6883C23.7513 22.0372 23.9146 23.4497 24.5189 24.6935C25.1233 25.9374 26.1327 26.9387 27.3814 27.533C25.3415 28.0827 23.4919 29.277 22.0178 31.0288C19.9106 33.5332 18.75 36.9965 18.75 40.7812C18.75 40.8655 18.7727 40.9481 18.8157 41.0205C18.8587 41.0929 18.9204 41.1524 18.9943 41.1928V41.1928ZM24.8438 22.0312C24.8438 21.0114 25.1462 20.0145 25.7127 19.1666C26.2793 18.3186 27.0846 17.6578 28.0268 17.2675C28.969 16.8772 30.0057 16.7751 31.0059 16.9741C32.0061 17.173 32.9249 17.6641 33.646 18.3852C34.3671 19.1063 34.8582 20.0251 35.0572 21.0253C35.2561 22.0255 35.154 23.0623 34.7638 24.0045C34.3735 24.9466 33.7126 25.7519 32.8647 26.3185C32.0167 26.8851 31.0198 27.1875 30 27.1875C28.633 27.1859 27.3223 26.6422 26.3557 25.6756C25.389 24.7089 24.8453 23.3983 24.8438 22.0312V22.0312ZM22.7351 31.6324C24.6387 29.3706 27.2184 28.125 30 28.125C32.7816 28.125 35.3613 29.3706 37.2649 31.6324C39.1798 33.908 40.2564 37.0511 40.3104 40.5078C39.3073 41.0508 35.1391 43.125 30 43.125C25.2475 43.125 20.7715 41.0385 19.6898 40.4967C19.7461 37.0443 20.8223 33.9056 22.7351 31.6324Z" stroke="#1F1F1F" stroke-width="0.8" mask="url(#path-2-outside-1_0_1)"/>
</g>
<defs>
<clipPath id="clip0_0_1">
<rect width="1280" height="4502" fill="white" transform="translate(-1095 -88)"/>
</clipPath>
</defs>
</svg>
